<?xml version="1.0" encoding="utf-8"?><!-- Uploaded to: SVG Repo, www.svgrepo.com, Generator: SVG Repo Mixer Tools -->
<svg width="800px" height="800px" viewBox="0 0 24 24" xmlns="http://www.w3.org/2000/svg" id="headset" class="icon glyph"><path d="M20,18h-.07A1,1,0,0,1,19,16.93l.36-5A7.38,7.38,0,0,0,6.6,6.35a7.31,7.31,0,0,0-2,5.56l.36,5a1,1,0,0,1-2,.14l-.36-5a9.38,9.38,0,1,1,18.72,0l-.36,5A1,1,0,0,1,20,18Z" style="fill:#231f20"></path><path d="M17,11H16a2,2,0,0,0-2,2v7a2,2,0,0,0,2,2h1a4,4,0,0,0,4-4V15A4,4,0,0,0,17,11Z" style="fill:#231f20"></path><path d="M8,11H7a4,4,0,0,0-4,4v3a4,4,0,0,0,4,4H8a2,2,0,0,0,2-2V13A2,2,0,0,0,8,11Z" style="fill:#231f20"></path></svg>